<svg width="32" height="32" viewBox="0 0 32 32" xmlns="http://www.w3.org/2000/svg">
  <defs>
    <linearGradient id="buildingGradient" x1="0%" y1="0%" x2="0%" y2="100%">
      <stop offset="0%" style="stop-color:#FF6B35;stop-opacity:1" />
      <stop offset="100%" style="stop-color:#DC2626;stop-opacity:1" />
    </linearGradient>
  </defs>
  
  <!-- Hotel Building -->
  <rect x="6" y="8" width="20" height="20" fill="url(#buildingGradient)" rx="1"/>
  
  <!-- Building Windows -->
  <rect x="8" y="10" width="2" height="2" fill="#FEF3C7" opacity="0.9"/>
  <rect x="12" y="10" width="2" height="2" fill="#FEF3C7" opacity="0.9"/>
  <rect x="16" y="10" width="2" height="2" fill="#FEF3C7" opacity="0.9"/>
  <rect x="20" y="10" width="2" height="2" fill="#FEF3C7" opacity="0.9"/>
  
  <rect x="8" y="14" width="2" height="2" fill="#FEF3C7" opacity="0.9"/>
  <rect x="12" y="14" width="2" height="2" fill="#FEF3C7" opacity="0.9"/>
  <rect x="16" y="14" width="2" height="2" fill="#FEF3C7" opacity="0.9"/>
  <rect x="20" y="14" width="2" height="2" fill="#FEF3C7" opacity="0.9"/>
  
  <rect x="8" y="18" width="2" height="2" fill="#FEF3C7" opacity="0.9"/>
  <rect x="12" y="18" width="2" height="2" fill="#FEF3C7" opacity="0.9"/>
  <rect x="16" y="18" width="2" height="2" fill="#FEF3C7" opacity="0.9"/>
  <rect x="20" y="18" width="2" height="2" fill="#FEF3C7" opacity="0.9"/>
  
  <!-- Door -->
  <rect x="14" y="22" width="4" height="6" fill="#F59E0B"/>
</svg>
