<svg width="192" height="192" viewBox="0 0 192 192" xmlns="http://www.w3.org/2000/svg">
  <defs>
    <linearGradient id="buildingGradient" x1="0%" y1="0%" x2="0%" y2="100%">
      <stop offset="0%" style="stop-color:#FF6B35;stop-opacity:1" />
      <stop offset="100%" style="stop-color:#DC2626;stop-opacity:1" />
    </linearGradient>
  </defs>
  
  <!-- Background Circle -->
  <circle cx="96" cy="96" r="90" fill="white" stroke="#DC2626" stroke-width="4"/>
  
  <!-- Hotel Building -->
  <rect x="40" y="60" width="112" height="80" fill="url(#buildingGradient)" rx="4"/>
  
  <!-- Building Windows -->
  <rect x="50" y="70" width="12" height="12" fill="#FEF3C7" opacity="0.9"/>
  <rect x="70" y="70" width="12" height="12" fill="#FEF3C7" opacity="0.9"/>
  <rect x="90" y="70" width="12" height="12" fill="#FEF3C7" opacity="0.9"/>
  <rect x="110" y="70" width="12" height="12" fill="#FEF3C7" opacity="0.9"/>
  <rect x="130" y="70" width="12" height="12" fill="#FEF3C7" opacity="0.9"/>
  
  <rect x="50" y="90" width="12" height="12" fill="#FEF3C7" opacity="0.9"/>
  <rect x="70" y="90" width="12" height="12" fill="#FEF3C7" opacity="0.9"/>
  <rect x="90" y="90" width="12" height="12" fill="#FEF3C7" opacity="0.9"/>
  <rect x="110" y="90" width="12" height="12" fill="#FEF3C7" opacity="0.9"/>
  <rect x="130" y="90" width="12" height="12" fill="#FEF3C7" opacity="0.9"/>
  
  <rect x="50" y="110" width="12" height="12" fill="#FEF3C7" opacity="0.9"/>
  <rect x="70" y="110" width="12" height="12" fill="#FEF3C7" opacity="0.9"/>
  <rect x="90" y="110" width="12" height="12" fill="#FEF3C7" opacity="0.9"/>
  <rect x="110" y="110" width="12" height="12" fill="#FEF3C7" opacity="0.9"/>
  <rect x="130" y="110" width="12" height="12" fill="#FEF3C7" opacity="0.9"/>
  
  <!-- Door -->
  <rect x="85" y="125" width="22" height="15" fill="#F59E0B"/>
  
  <!-- Text -->
  <text x="96" y="155" font-family="Arial, sans-serif" font-size="14" font-weight="bold" fill="#DC2626" text-anchor="middle">BookMyHotel</text>
</svg>
