<svg width="200" height="60" viewBox="0 0 200 60" xmlns="http://www.w3.org/2000/svg">
  <!-- Hotel Building -->
  <rect x="10" y="20" width="30" height="30" fill="#FEF3C7" rx="2"/>
  
  <!-- Building Details -->
  <rect x="14" y="24" width="4" height="4" fill="#FF6B35" opacity="0.8"/>
  <rect x="20" y="24" width="4" height="4" fill="#FF6B35" opacity="0.8"/>
  <rect x="26" y="24" width="4" height="4" fill="#FF6B35" opacity="0.8"/>
  <rect x="32" y="24" width="4" height="4" fill="#FF6B35" opacity="0.8"/>
  
  <rect x="14" y="30" width="4" height="4" fill="#FF6B35" opacity="0.8"/>
  <rect x="20" y="30" width="4" height="4" fill="#FF6B35" opacity="0.8"/>
  <rect x="26" y="30" width="4" height="4" fill="#FF6B35" opacity="0.8"/>
  <rect x="32" y="30" width="4" height="4" fill="#FF6B35" opacity="0.8"/>
  
  <rect x="14" y="36" width="4" height="4" fill="#FF6B35" opacity="0.8"/>
  <rect x="20" y="36" width="4" height="4" fill="#FF6B35" opacity="0.8"/>
  <rect x="26" y="36" width="4" height="4" fill="#FF6B35" opacity="0.8"/>
  <rect x="32" y="36" width="4" height="4" fill="#FF6B35" opacity="0.8"/>
  
  <!-- Door -->
  <rect x="22" y="42" width="6" height="8" fill="#FBBF24"/>
  
  <!-- Company Name -->
  <text x="45" y="25" font-family="Arial, sans-serif" font-size="16" font-weight="bold" fill="#FEF3C7">BookMy</text>
  <text x="45" y="42" font-family="Arial, sans-serif" font-size="16" font-weight="bold" fill="#FBBF24">Hotel</text>
</svg>
