<svg width="120" height="40" viewBox="0 0 120 40" xmlns="http://www.w3.org/2000/svg">
  <defs>
    <linearGradient id="defaultHotelGradient" x1="0%" y1="0%" x2="100%" y2="100%">
      <stop offset="0%" style="stop-color:#1976D2;stop-opacity:1" />
      <stop offset="100%" style="stop-color:#0D47A1;stop-opacity:1" />
    </linearGradient>
  </defs>
  
  <!-- Generic hotel building -->
  <rect x="10" y="12" width="12" height="23" fill="url(#defaultHotelGradient)" rx="1" />
  <rect x="24" y="8" width="16" height="27" fill="url(#defaultHotelGradient)" rx="1" />
  <rect x="42" y="15" width="10" height="20" fill="url(#defaultHotelGradient)" rx="1" />
  
  <!-- Windows -->
  <rect x="13" y="15" width="2" height="2" fill="white" opacity="0.8" />
  <rect x="16" y="15" width="2" height="2" fill="white" opacity="0.8" />
  <rect x="13" y="19" width="2" height="2" fill="white" opacity="0.8" />
  <rect x="16" y="19" width="2" height="2" fill="white" opacity="0.8" />
  <rect x="13" y="23" width="2" height="2" fill="white" opacity="0.8" />
  <rect x="16" y="23" width="2" height="2" fill="white" opacity="0.8" />
  
  <rect x="27" y="12" width="2" height="2" fill="white" opacity="0.8" />
  <rect x="31" y="12" width="2" height="2" fill="white" opacity="0.8" />
  <rect x="35" y="12" width="2" height="2" fill="white" opacity="0.8" />
  <rect x="27" y="16" width="2" height="2" fill="white" opacity="0.8" />
  <rect x="31" y="16" width="2" height="2" fill="white" opacity="0.8" />
  <rect x="35" y="16" width="2" height="2" fill="white" opacity="0.8" />
  
  <rect x="45" y="18" width="2" height="2" fill="white" opacity="0.8" />
  <rect x="47" y="18" width="2" height="2" fill="white" opacity="0.8" />
  <rect x="45" y="22" width="2" height="2" fill="white" opacity="0.8" />
  <rect x="47" y="22" width="2" height="2" fill="white" opacity="0.8" />
  
  <!-- Hotel text -->
  <text x="58" y="18" font-family="sans-serif" font-size="8" font-weight="bold" fill="white">HOTEL</text>
  <text x="58" y="28" font-family="sans-serif" font-size="6" font-weight="normal" fill="white" opacity="0.8">MANAGEMENT</text>
  
  <!-- Simple decoration -->
  <rect x="5" y="18" width="3" height="4" fill="white" opacity="0.3" />
</svg>