<svg width="220" height="60" viewBox="0 0 220 60" xmlns="http://www.w3.org/2000/svg">
  <defs>
    <linearGradient id="towerGradient" x1="0%" y1="0%" x2="0%" y2="100%">
      <stop offset="0%" style="stop-color:#FBBF24;stop-opacity:1" />
      <stop offset="50%" style="stop-color:#F59E0B;stop-opacity:1" />
      <stop offset="100%" style="stop-color:#DC2626;stop-opacity:1" />
    </linearGradient>
  </defs>
  
  <!-- Geometric Hotel Tower -->
  <polygon points="15,50 15,25 25,20 35,25 35,15 45,10 50,15 50,50" fill="url(#towerGradient)"/>
  
  <!-- Windows Pattern -->
  <rect x="18" y="30" width="3" height="3" fill="#FEF3C7" opacity="0.9"/>
  <rect x="18" y="38" width="3" height="3" fill="#FEF3C7" opacity="0.9"/>
  <rect x="18" y="46" width="3" height="3" fill="#FEF3C7" opacity="0.9"/>
  <rect x="28" y="28" width="3" height="3" fill="#FEF3C7" opacity="0.9"/>
  <rect x="28" y="36" width="3" height="3" fill="#FEF3C7" opacity="0.9"/>
  <rect x="28" y="44" width="3" height="3" fill="#FEF3C7" opacity="0.9"/>
  <rect x="38" y="20" width="3" height="3" fill="#FEF3C7" opacity="0.9"/>
  <rect x="38" y="26" width="3" height="3" fill="#FEF3C7" opacity="0.9"/>
  <rect x="38" y="32" width="3" height="3" fill="#FEF3C7" opacity="0.9"/>
  <rect x="38" y="38" width="3" height="3" fill="#FEF3C7" opacity="0.9"/>
  <rect x="46" y="18" width="3" height="3" fill="#FEF3C7" opacity="0.9"/>
  <rect x="46" y="24" width="3" height="3" fill="#FEF3C7" opacity="0.9"/>
  <rect x="46" y="30" width="3" height="3" fill="#FEF3C7" opacity="0.9"/>
  
  <!-- Company Name -->
  <text x="60" y="35" font-family="Arial, sans-serif" font-size="20" font-weight="bold" fill="#FFFFFF">BookMyHotel</text>
</svg>
