<svg width="200" height="60" viewBox="0 0 200 60" xmlns="http://www.w3.org/2000/svg">
  <defs>
    <linearGradient id="buildingGradient" x1="0%" y1="0%" x2="0%" y2="100%">
      <stop offset="0%" style="stop-color:#FF6B35;stop-opacity:1" />
      <stop offset="100%" style="stop-color:#DC2626;stop-opacity:1" />
    </linearGradient>
  </defs>
  
  <!-- Hotel Building -->
  <rect x="10" y="20" width="30" height="30" fill="url(#buildingGradient)" rx="2"/>
  
  <!-- Building Details -->
  <rect x="14" y="24" width="4" height="4" fill="#FEF3C7" opacity="0.9"/>
  <rect x="20" y="24" width="4" height="4" fill="#FEF3C7" opacity="0.9"/>
  <rect x="26" y="24" width="4" height="4" fill="#FEF3C7" opacity="0.9"/>
  <rect x="32" y="24" width="4" height="4" fill="#FEF3C7" opacity="0.9"/>
  
  <rect x="14" y="30" width="4" height="4" fill="#FEF3C7" opacity="0.9"/>
  <rect x="20" y="30" width="4" height="4" fill="#FEF3C7" opacity="0.9"/>
  <rect x="26" y="30" width="4" height="4" fill="#FEF3C7" opacity="0.9"/>
  <rect x="32" y="30" width="4" height="4" fill="#FEF3C7" opacity="0.9"/>
  
  <rect x="14" y="36" width="4" height="4" fill="#FEF3C7" opacity="0.9"/>
  <rect x="20" y="36" width="4" height="4" fill="#FEF3C7" opacity="0.9"/>
  <rect x="26" y="36" width="4" height="4" fill="#FEF3C7" opacity="0.9"/>
  <rect x="32" y="36" width="4" height="4" fill="#FEF3C7" opacity="0.9"/>
  
  <!-- Door -->
  <rect x="22" y="42" width="6" height="8" fill="#F59E0B"/>
  
  <!-- Company Name -->
  <text x="45" y="25" font-family="Arial, sans-serif" font-size="16" font-weight="bold" fill="#DC2626">BookMy</text>
  <text x="45" y="42" font-family="Arial, sans-serif" font-size="16" font-weight="bold" fill="#F59E0B">Hotel</text>
</svg>
